<mxfile host="app.diagrams.net" modified="2023-10-06T20:25:52.370Z" agent="Mozilla/5.0 (Macintosh; Intel Mac OS X 10_15_7) AppleWebKit/537.36 (KHTML, like Gecko) Chrome/116.0.0.0 Safari/537.36" etag="_edcTQyoGRhrtza22Wkd" version="22.0.3" type="device">
  <diagram name="Страница 1" id="e6wJgubho37ItNygdWk6">
    <mxGraphModel dx="1434" dy="765" grid="1" gridSize="10" guides="1" tooltips="1" connect="1" arrows="1" fold="1" page="1" pageScale="1" pageWidth="827" pageHeight="1169" math="0" shadow="0">
      <root>
        <mxCell id="0" />
        <mxCell id="1" parent="0" />
        <mxCell id="MmQcngY2rdd8kaFNH9nb-3" value="" style="edgeStyle=orthogonalEdgeStyle;rounded=0;orthogonalLoop=1;jettySize=auto;html=1;" parent="1" source="MmQcngY2rdd8kaFNH9nb-1" target="MmQcngY2rdd8kaFNH9nb-2" edge="1">
          <mxGeometry relative="1" as="geometry" />
        </mxCell>
        <mxCell id="MmQcngY2rdd8kaFNH9nb-1" value="&amp;nbsp;public bool Push(Elem el)" style="strokeWidth=2;html=1;shape=mxgraph.flowchart.terminator;whiteSpace=wrap;" parent="1" vertex="1">
          <mxGeometry x="364" y="80" width="100" height="60" as="geometry" />
        </mxCell>
        <mxCell id="MmQcngY2rdd8kaFNH9nb-7" value="Так" style="edgeStyle=orthogonalEdgeStyle;rounded=0;orthogonalLoop=1;jettySize=auto;html=1;entryX=0.5;entryY=0;entryDx=0;entryDy=0;entryPerimeter=0;" parent="1" source="MmQcngY2rdd8kaFNH9nb-2" target="n0d5iZtfv5Ps4I_SPrZz-2" edge="1">
          <mxGeometry x="-0.3551" y="1" relative="1" as="geometry">
            <mxPoint as="offset" />
            <mxPoint x="414" y="250" as="targetPoint" />
          </mxGeometry>
        </mxCell>
        <mxCell id="MmQcngY2rdd8kaFNH9nb-16" value="Ні" style="edgeStyle=orthogonalEdgeStyle;rounded=0;orthogonalLoop=1;jettySize=auto;html=1;entryX=0;entryY=0.5;entryDx=0;entryDy=0;" parent="1" source="MmQcngY2rdd8kaFNH9nb-2" target="MmQcngY2rdd8kaFNH9nb-8" edge="1">
          <mxGeometry relative="1" as="geometry">
            <Array as="points">
              <mxPoint x="320" y="190" />
              <mxPoint x="320" y="310" />
            </Array>
          </mxGeometry>
        </mxCell>
        <mxCell id="MmQcngY2rdd8kaFNH9nb-2" value="_Top == _V.Length - 1" style="strokeWidth=2;html=1;shape=mxgraph.flowchart.decision;whiteSpace=wrap;" parent="1" vertex="1">
          <mxGeometry x="329" y="160" width="169" height="60" as="geometry" />
        </mxCell>
        <mxCell id="n0d5iZtfv5Ps4I_SPrZz-4" value="" style="edgeStyle=orthogonalEdgeStyle;rounded=0;orthogonalLoop=1;jettySize=auto;html=1;" edge="1" parent="1" source="MmQcngY2rdd8kaFNH9nb-8" target="n0d5iZtfv5Ps4I_SPrZz-3">
          <mxGeometry relative="1" as="geometry" />
        </mxCell>
        <mxCell id="MmQcngY2rdd8kaFNH9nb-8" value="&lt;div&gt;_Top++;&lt;/div&gt;&lt;div&gt;&lt;span style=&quot;background-color: initial;&quot;&gt;_V[_Top] = el;&lt;/span&gt;&lt;/div&gt;" style="whiteSpace=wrap;html=1;strokeWidth=2;" parent="1" vertex="1">
          <mxGeometry x="371" y="290" width="88" height="40" as="geometry" />
        </mxCell>
        <mxCell id="n0d5iZtfv5Ps4I_SPrZz-2" value="return false" style="strokeWidth=2;html=1;shape=mxgraph.flowchart.terminator;whiteSpace=wrap;" vertex="1" parent="1">
          <mxGeometry x="371" y="240" width="86" height="40" as="geometry" />
        </mxCell>
        <mxCell id="n0d5iZtfv5Ps4I_SPrZz-3" value="return true" style="strokeWidth=2;html=1;shape=mxgraph.flowchart.terminator;whiteSpace=wrap;" vertex="1" parent="1">
          <mxGeometry x="372" y="360" width="86" height="40" as="geometry" />
        </mxCell>
      </root>
    </mxGraphModel>
  </diagram>
</mxfile>
